<?xml version="1.0" encoding="utf-8"?>
<svg viewBox="0 0 279.408 259.354" xmlns="http://www.w3.org/2000/svg">
  <polygon points="31.875 221.79800415039062 240.5970001220703 221.83200073242188 136.24899291992188 44.143001556396484" style="fill: rgb(40, 190, 130);"/>
  <polygon style="fill: rgb(28, 28, 28);" points="136.75599670410156 85.33599853515625 136.82699584960938 93.3479995727539 145.07699584960938 88.7699966430664"/>
  <polygon style="fill: rgb(28, 28, 28);" points="127.469 93.348 127.54 85.336 135.79 89.914" transform="matrix(-1, 0, 0, -1, 263.258995, 178.683998)"/>
  <polygon style="fill: rgb(28, 28, 28);" points="137.124 94.484 146.381 89.285 155.3 88.546 159.295 97.126 151.517 112.956"/>
  <polygon style="fill: rgb(28, 28, 28);" points="113.257 106.944 122.514 112.143 131.433 112.882 135.428 104.302 127.65 88.472" transform="matrix(-1, 0, 0, -1, 248.684998, 201.354004)"/>
  <polygon style="fill: rgb(28, 28, 28);" points="112.843 95.477 116.249 88.049 110.217 75.532"/>
  <polygon style="fill: rgb(28, 28, 28);" points="99.569 101.703 111.978 96.821 109.033 73.393 102.051 68.62 90.896 84.548"/>
  <polygon style="fill: rgb(28, 28, 28);" points="92.205 62.099 101.012 68.026 90.899 82.738"/>
  <polygon style="fill: rgb(28, 28, 28);" points="92.524 61.057 95.566 57.129 107.09 70.792"/>
  <polygon style="fill: rgb(28, 28, 28);" points="158.925 75.351 162.331 82.779 156.299 95.296" transform="matrix(-1, 0, 0, -1, 318.62999, 170.646996)"/>
  <polygon style="fill: rgb(28, 28, 28);" points="169.288 68.595 181.697 73.477 178.752 96.905 171.77 101.678 160.615 85.75" transform="matrix(-1, 0, 0, -1, 342.312012, 170.273003)"/>
  <polygon style="fill: rgb(28, 28, 28);" points="172.811 82.668 181.618 76.741 171.505 62.029" transform="matrix(-1, 0, 0, -1, 353.123001, 144.696999)"/>
  <polygon style="fill: rgb(28, 28, 28);" points="165.455 66.804 168.497 70.732 180.021 57.069" transform="matrix(-1, 0, 0, -1, 345.475998, 127.801003)"/>
  <polygon style="fill: rgb(28, 28, 28);" points="151.01 114.074 148.303 124.24 141.042 123.698 137.03 122.098 136.784 95.886"/>
  <polygon style="fill: rgb(28, 28, 28);" points="135.746 106.036 133.039 95.87 125.778 96.412 121.766 98.012 121.52 124.224" transform="matrix(-1, 0, 0, -1, 257.265999, 220.094002)"/>
  <polygon style="fill: rgb(174, 41, 197);" points="154.731 129.44 161.188 126.497 164.252 127.323 164.222 130.762 161.579 132.278"/>
  <polygon style="fill: rgb(174, 41, 197);" points="108.192 129.321 114.649 132.264 117.713 131.438 117.683 127.999 115.04 126.483" transform="matrix(-1, 0, 0, -1, 225.904999, 258.747009)"/>
  <polygon style="fill: rgb(28, 28, 28);" points="127.321 168.689 130.873 173.609 135.351 174.867 137.162 174.812 141.446 173.664 145.22 168.813 139.622 169.891 136.388 167.625 133.375 169.726"/>
  <polygon style="fill: rgb(28, 28, 28);" points="152.734 112.872 160.054 97.951 171.78 102.511"/>
  <polygon style="fill: rgb(28, 28, 28);" points="100.697 97.935 108.017 112.856 119.743 108.296" transform="matrix(-1, 0, 0, -1, 220.439995, 210.791)"/>
  <polygon style="fill: rgb(28, 28, 28);" points="136.937 146.418 140.735 145.183 143.389 133.766 140.643 124.797 136.914 123.309"/>
  <polygon style="fill: rgb(28, 28, 28);" points="136.946 147.503 136.858 159.771 140.877 155.823 143.309 147.874 141.229 146.375"/>
  <polygon style="fill: rgb(28, 28, 28);" points="142.322 154.682 146.746 150.592 144.261 148.583"/>
  <polygon points="136.805 161.375 136.84 166.61 139.467 168.672 147.028 167.262 153.127 157.92 147.433 151.081" style="fill: rgb(28, 28, 28);"/>
  <polygon points="144.791 134.105 151.271 130.998 150.858 142.678" style="fill: rgb(28, 28, 28);"/>
  <polygon points="144.288 133.011 151.941 129.505 152.968 128.638 148.728 125.371 141.715 124.918" style="fill: rgb(28, 28, 28);"/>
  <polygon points="148.002 150.019 142.032 145.499 144.101 135.072 150.834 144.517 152.95 156.051" style="fill: rgb(28, 28, 28);"/>
  <polygon points="162.741 108.741 172.77 103.262 175.184 114.082" style="fill: rgb(28, 28, 28);"/>
  <polygon points="163.11500549316406 121.16799926757812 166.93699645996094 126.94300079345703 172.69500732421875 129.88999938964844 175.33799743652344 115.49400329589844 162.0709991455078 109.58499908447266" style="fill: rgb(28, 28, 28);"/>
  <polygon points="153.987 127.823 149.567 124.561 152.095 114.463 160.953 109.553 162.095 121.233" style="fill: rgb(28, 28, 28);"/>
  <polygon points="154.803 128.427 161.344 125.327 165.341 126.42 162.649 122.146" style="fill: rgb(28, 28, 28);"/>
  <polygon points="176.989 146.62 172.847 131.116 165.59 127.568 165.5 131.062" style="fill: rgb(28, 28, 28);"/>
  <polygon points="151.977 143.613 152.481 130.539 153.435 130.017 161.611 133.583 164.708 131.836 170.939 140.155" style="fill: rgb(28, 28, 28);"/>
  <polygon points="151.99 144.581 154.331 157.51 168.719 162.822 171.06 141.465" style="fill: rgb(28, 28, 28);"/>
  <polygon points="170.07 161.417 177.399 148.902 172.069 141.735" style="fill: rgb(28, 28, 28);"/>
  <polygon points="168.548 166.505 169.629 163.93 175.715 153.737 177.372 174.662" style="fill: rgb(28, 28, 28);"/>
  <polygon points="150.244 164.299 154.007 158.482 168.575 163.848 162.741 179.515" style="fill: rgb(28, 28, 28);"/>
  <polygon points="147.948 167.95 149.622 165.429 161.903 180.249 149.316 183.13" style="fill: rgb(28, 28, 28);"/>
  <polygon points="136.959 175.891 142.109 174.684 146.935 168.346 148.141 183.778 136.833 189.126" style="fill: rgb(28, 28, 28);"/>
  <polygon points="136.801 209.207 136.841 190.368 143.539 187.09" style="fill: rgb(28, 28, 28);"/>
  <polygon points="168.702 202.6 186.514 202.386 178.059 177.402" style="fill: rgb(28, 28, 28);"/>
  <polygon points="165.615 226.266 168.465 203.609 186.063 203.609" style="fill: rgb(28, 28, 28);"/>
  <polygon points="140.328 234.418 167.26 204.708 164.41 227.293" style="fill: rgb(28, 28, 28);"/>
  <polygon points="152.494 183.666 163.181 181.242 168.167 167.69 177.339 176.174 167.891 201.873" style="fill: rgb(28, 28, 28);"/>
  <polygon points="139.34 234.074 167.332 203.044 151.188 183.862 144.721 186.596 136.779 212.028" style="fill: rgb(28, 28, 28);"/>
  <polygon style="fill: rgb(28, 28, 28);" points="129.203 123.311 133.001 124.546 135.655 135.962 132.909 144.932 129.18 146.42" transform="matrix(-1, 0, 0, -1, 264.834991, 269.730995)"/>
  <polygon points="122.13 124.896 129.783 128.402 130.81 129.269 126.57 132.536 119.557 132.989" style="fill: rgb(28, 28, 28);" transform="matrix(-1, 0, 0, -1, 250.366997, 257.885002)"/>
  <polygon points="114.893 109.481 110.473 112.743 113.001 122.841 121.859 127.751 123.001 116.071" style="fill: rgb(28, 28, 28);" transform="matrix(-1, 0, 0, -1, 233.473999, 237.232002)"/>
  <polygon points="97.397 108.583 107.426 114.062 109.84 103.242" style="fill: rgb(28, 28, 28);" transform="matrix(-1, 0, 0, -1, 207.237, 217.303993)"/>
  <polygon points="98.224 118.219 102.046 112.444 107.804 109.497 110.447 123.893 97.18 129.802" style="fill: rgb(28, 28, 28);" transform="matrix(-1, 0, 0, -1, 207.626999, 239.299004)"/>
  <polygon points="107.214 122.13 113.755 125.23 117.752 124.137 115.06 128.411" style="fill: rgb(28, 28, 28);" transform="matrix(-1, 0, 0, -1, 224.965996, 250.540993)"/>
  <polygon points="107.025 127.668 102.883 143.172 95.626 146.72 95.536 143.226" style="fill: rgb(28, 28, 28);" transform="matrix(-1, 0, 0, -1, 202.561005, 274.388)"/>
  <polygon points="101.611 130.052 102.115 143.126 103.069 143.648 111.245 140.082 114.342 141.829 120.573 133.51" style="fill: rgb(28, 28, 28);" transform="matrix(-1, 0, 0, -1, 222.183998, 273.699997)"/>
  <polygon points="121.245 139.669 127.725 142.776 127.312 131.096" style="fill: rgb(28, 28, 28);" transform="matrix(-1, 0, 0, -1, 248.970001, 273.871994)"/>
  <polygon points="125.58 141.092 119.61 145.612 121.679 156.039 128.412 146.594 130.528 135.06" style="fill: rgb(28, 28, 28);" transform="matrix(-1, 0, 0, -1, 250.138, 291.098999)"/>
  <polygon style="fill: rgb(28, 28, 28);" points="129.325 158.707 129.237 146.439 133.256 150.387 135.688 158.336 133.608 159.835" transform="matrix(-1, 0, 0, -1, 264.925003, 306.274002)"/>
  <polygon style="fill: rgb(28, 28, 28);" points="125.813 148.467 130.237 152.557 127.752 154.566" transform="matrix(-1, 0, 0, -1, 256.050003, 303.03299)"/>
  <polygon points="119.419 158.386 119.454 153.151 122.081 151.089 129.642 152.499 135.741 161.841 130.047 168.68" style="fill: rgb(28, 28, 28);" transform="matrix(-1, 0, 0, -1, 255.159996, 319.768997)"/>
  <polygon points="101.432 159.669 103.773 146.74 118.161 141.428 120.502 162.785" style="fill: rgb(28, 28, 28);" transform="matrix(-1, 0, 0, -1, 221.933998, 304.212997)"/>
  <polygon points="95.123 141.705 102.452 154.22 97.122 161.387" style="fill: rgb(28, 28, 28);" transform="matrix(-1, 0, 0, -1, 197.575005, 303.091995)"/>
  <polygon points="103.96 173.727 107.723 179.544 122.291 174.178 116.457 158.511" style="fill: rgb(28, 28, 28);" transform="matrix(-1, 0, 0, -1, 226.250999, 338.055008)"/>
  <polygon points="95.08 161.929 96.161 164.504 102.247 174.697 103.904 153.772" style="fill: rgb(28, 28, 28);" transform="matrix(-1, 0, 0, -1, 198.984001, 328.469009)"/>
  <polygon points="124.534 181.615 129.684 182.822 134.51 189.16 135.716 173.728 124.408 168.38" style="fill: rgb(28, 28, 28);" transform="matrix(-1, 0, 0, -1, 260.124001, 357.540009)"/>
  <polygon points="110.573 180.621 112.247 183.142 124.528 168.322 111.941 165.441" style="fill: rgb(28, 28, 28);" transform="matrix(-1, 0, 0, -1, 235.100998, 348.582993)"/>
  <polygon points="129.037 187.097 129.078 205.936 135.775 209.214" style="fill: rgb(28, 28, 28);" transform="matrix(-1, 0, 0, -1, 264.811996, 396.311005)"/>
  <polygon points="107.729 183.852 135.721 214.882 119.577 234.064 113.11 231.33 105.168 205.898" style="fill: rgb(28, 28, 28);" transform="matrix(-1, 0, 0, -1, 240.888992, 417.916)"/>
  <polygon points="105.201 204.611 132.133 234.321 129.283 211.736" style="fill: rgb(28, 28, 28);" transform="matrix(-1, 0, 0, -1, 237.333992, 438.931992)"/>
  <polygon points="86.385 203.608 89.235 226.265 106.833 226.265" style="fill: rgb(28, 28, 28);" transform="matrix(-1, 0, 0, -1, 193.218002, 429.873001)"/>
  <polygon points="85.912 177.403 103.724 177.617 95.269 202.601" style="fill: rgb(28, 28, 28);" transform="matrix(-1, 0, 0, -1, 189.636002, 380.003998)"/>
  <polygon points="95.226 185.897 105.913 188.321 110.899 201.873 120.071 193.389 110.623 167.69" style="fill: rgb(28, 28, 28);" transform="matrix(-1, 0, 0, -1, 215.296997, 369.563004)"/>
</svg>